<svg width="29" height="25" viewBox="0 0 29 25" fill="none" xmlns="http://www.w3.org/2000/svg">
<path d="M0.45459 13.4091C0.126457 13.7982 -0.0332098 14.2935 0.00576386 14.8054C0.0447375 15.3173 0.276065 15.7832 0.659516 16.1159L9.96668 24.2375C10.3124 24.5382 10.7411 24.6995 11.1912 24.6995C11.2465 24.6995 11.3031 24.6969 11.3597 24.6918C11.8688 24.6457 12.3277 24.3987 12.6521 23.9981L28.571 4.27528C28.8903 3.87854 29.0399 3.37942 28.9909 2.86879C28.9406 2.35815 28.7005 1.89742 28.3107 1.57108L27.154 0.43489C26.3506 -0.23572 25.1613 -0.11798 24.5 0.699807L11.1912 17.6995L4.15901 11.9912C3.36948 11.3053 2.17764 11.3961 1.5 12.1998L0.45459 13.4091Z" fill="#282828"/>
</svg>
