<svg width="18" height="15" viewBox="0 0 18 15" fill="none" xmlns="http://www.w3.org/2000/svg">
<path d="M17.2371 5.05642H13.5028L11.4081 0.312955C11.2915 0.049033 10.9807 -0.0715764 10.7138 0.0437483C10.4469 0.159003 10.325 0.466455 10.4415 0.730411L12.3519 5.05646H5.64807L7.55846 0.730411C7.675 0.466455 7.55315 0.159038 7.28624 0.0437483C7.01937 -0.0715764 6.70845 0.0489634 6.59194 0.312955L4.4972 5.05642H0.762942C0.274447 5.05642 -0.0880835 5.49377 0.0187913 5.95413L1.98525 14.4246C2.06333 14.7609 2.3725 15 2.7294 15H15.2706C15.6275 15 15.9367 14.7609 16.0147 14.4246L17.9812 5.95413C18.0881 5.4938 17.7255 5.05642 17.2371 5.05642ZM4.59641 6.65588C4.52595 6.65588 4.45434 6.64183 4.38561 6.61214C4.11871 6.49689 3.99682 6.18947 4.1134 5.92548L4.50954 5.0284H5.66041L5.07991 6.3429C4.99339 6.53896 4.79968 6.65588 4.59641 6.65588ZM6.36329 12.2186C6.36329 12.5066 6.12718 12.7401 5.83594 12.7401C5.54471 12.7401 5.3086 12.5066 5.3086 12.2186V8.39413C5.3086 8.10611 5.54471 7.87261 5.83594 7.87261C6.12718 7.87261 6.36329 8.10611 6.36329 8.39413V12.2186ZM9.52734 12.2186C9.52734 12.5066 9.29123 12.7401 9 12.7401C8.70877 12.7401 8.47266 12.5066 8.47266 12.2186V8.39413C8.47266 8.10611 8.70877 7.87261 9 7.87261C9.29123 7.87261 9.52734 8.10611 9.52734 8.39413V12.2186ZM12.6914 12.2186C12.6914 12.5066 12.4553 12.7401 12.1641 12.7401C11.8728 12.7401 11.6367 12.5066 11.6367 12.2186V8.39413C11.6367 8.10611 11.8728 7.87261 12.1641 7.87261C12.4553 7.87261 12.6914 8.10611 12.6914 8.39413V12.2186ZM13.6144 6.61214C13.5457 6.64183 13.474 6.65588 13.4036 6.65588C13.2003 6.65588 13.0066 6.53899 12.9201 6.34293L12.3396 5.02844H13.4904L13.8866 5.92551C14.0031 6.18947 13.8813 6.49689 13.6144 6.61214Z" fill="white"/>
</svg>
