<svg width="12" height="17" viewBox="0 0 12 17" fill="none" xmlns="http://www.w3.org/2000/svg">
<path d="M10.4647 14.8205C9.6859 14.6003 8.73425 14.4449 7.69227 14.3642L7.26158 14.9878C6.7506 15.7264 5.83957 15.6305 6.00002 15.6305C5.48861 15.6305 5.01719 15.3902 4.7388 14.9878L4.30776 14.3642C3.26579 14.4449 2.31413 14.6003 1.53532 14.8205C0.3754 15.1485 0 15.521 0 15.6502C0 15.779 0.375435 16.1515 1.53532 16.4796C3.98762 17.1735 8.01238 17.1735 10.4647 16.4796C11.6246 16.1515 12 15.779 12 15.6502C12 15.521 11.6246 15.1485 10.4647 14.8205Z" fill="white"/>
<path d="M5.6306 14.4459C5.80444 14.6972 6.19574 14.6975 6.36975 14.4459C6.98086 13.5615 10.485 8.49105 11.0271 7.70659C12.9261 4.14479 10.1488 -0.0884737 5.85905 0.00140717C1.73529 0.088831 -0.88206 4.22667 0.973262 7.70659C1.64256 8.67513 4.94427 13.4526 5.6306 14.4459ZM3.3951 3.62775H4.20756V2.28738C4.20756 1.72229 4.69775 1.26276 5.30019 1.26276H6.69989C7.30232 1.26276 7.79251 1.72226 7.79251 2.28738V3.62775H8.60497C9.10487 3.62775 9.49989 4.0321 9.45143 4.50163C9.45143 4.50395 9.45108 4.50594 9.45073 4.50793L9.03279 8.09606C8.98179 8.53534 8.58793 8.86667 8.11655 8.86667H3.8888C3.41809 8.86667 3.02427 8.53597 2.97256 8.09739L2.54931 4.50893C2.54896 4.50694 2.54896 4.50495 2.5486 4.50295C2.4994 4.03253 2.89517 3.62775 3.3951 3.62775Z" fill="white"/>
<path d="M7.99046 7.87061L8.36837 4.62381H3.63201L4.01489 7.87061H7.99046Z" fill="white"/>
<path d="M6.72996 2.28738C6.72996 2.27177 6.7165 2.25882 6.69985 2.25882H5.30015C5.2835 2.25882 5.27004 2.27177 5.27004 2.28738V3.62742H6.72996V2.28738Z" fill="white"/>
</svg>
