<svg width="36" height="42" viewBox="0 0 36 42" fill="none" xmlns="http://www.w3.org/2000/svg">
<path d="M35.8358 35.6862C35.8358 35.6862 31.1595 27.6744 30.3207 26.2374C31.275 25.9472 32.2917 25.6909 32.7141 24.9638C33.4181 23.7523 32.1649 21.7649 32.494 20.4663C32.833 19.1299 34.8339 17.9734 34.8339 16.6149C34.8339 15.2914 32.7652 13.7451 32.426 12.4165C32.0947 11.1181 33.3441 9.12858 32.6378 7.91854C31.9315 6.70839 29.5791 6.80781 28.6107 5.87892C27.6144 4.92301 27.6174 2.5842 26.4156 1.9436C25.209 1.30061 23.2479 2.60009 21.9081 2.29227C20.5836 1.98798 19.4002 0 18.0167 0C16.6127 0 14.3796 2.25505 14.0294 2.3362C12.6903 2.64651 10.7267 1.35021 9.52127 1.99592C8.32063 2.63868 8.32803 4.97772 7.33347 5.93522C6.3667 6.86581 4.01415 6.7707 3.31004 7.98221C2.60605 9.1935 3.85918 11.1805 3.53025 12.4797C3.2004 13.7822 1.12976 15.102 1.12976 16.6084C1.12976 17.967 3.13572 19.1199 3.47673 20.4557C3.80817 21.754 2.5588 23.7434 3.26507 24.9539C3.64957 25.6127 4.52196 25.8832 5.3932 26.1432C5.49488 26.1735 5.68719 26.2869 5.55693 26.4761C4.96088 27.5017 0.16344 35.7554 0.16344 35.7554C-0.218215 36.4119 0.0917084 36.9747 0.851944 37.0066L4.57319 37.1613C5.33343 37.1932 6.28711 37.7439 6.6929 38.3855L8.6786 41.5265C9.08439 42.1682 9.72826 42.1561 10.1098 41.4997C10.1098 41.4997 15.6658 31.9377 15.6681 31.935C15.7795 31.8051 15.8916 31.8318 15.9452 31.8772C16.5531 32.3932 17.4005 32.9079 18.1078 32.9079C18.8014 32.9079 19.4437 32.4234 20.0791 31.883C20.1307 31.8391 20.2566 31.7491 20.3486 31.9359C20.35 31.9388 25.8999 41.4486 25.8999 41.4486C26.2824 42.1041 26.9264 42.1153 27.331 41.4728L29.3111 38.3281C29.7157 37.686 30.6684 37.1331 31.4286 37.1001L35.1495 36.9385C35.9094 36.9052 36.2183 36.3417 35.8358 35.6862ZM24.1666 27.085C20.0522 29.4711 15.1136 29.2154 11.3414 26.8435C5.81414 23.3142 3.99547 16.0133 7.31821 10.2964C10.6789 4.5135 18.0664 2.47297 23.9197 5.65089C23.9505 5.66758 23.9809 5.68483 24.0114 5.70186C24.0548 5.72581 24.098 5.75009 24.1412 5.77461C25.947 6.81247 27.5129 8.31875 28.6342 10.24C32.0611 16.1121 30.0571 23.6688 24.1666 27.085Z" fill="white"/>
<path d="M23.2257 7.50278C23.2086 7.49291 23.1913 7.48372 23.1742 7.47395C20.0474 5.66996 16.0621 5.53807 12.7221 7.4752C7.76556 10.3497 6.07898 16.708 8.96256 21.6488C9.84247 23.1566 11.0482 24.3601 12.4394 25.2239C12.5577 25.2986 12.6773 25.372 12.7996 25.4426C17.7615 28.3082 24.1363 26.6154 27.0108 21.6693C29.8851 16.7231 28.1875 10.3684 23.2257 7.50278ZM24.4669 15.5887L22.7296 17.2768C22.1915 17.7996 21.8551 18.8316 21.9823 19.5699L22.3924 21.9536C22.5195 22.6919 22.0793 23.0107 21.4142 22.6621L19.2667 21.5367C18.6015 21.1881 17.5131 21.1881 16.848 21.5367L14.7006 22.6621C14.0354 23.0107 13.5951 22.6919 13.7222 21.9536L14.1323 19.5699C14.2594 18.8316 13.9231 17.7996 13.385 17.2768L11.6477 15.5887C11.1095 15.0659 11.2778 14.55 12.0214 14.4421L14.4222 14.0944C15.1658 13.9867 16.0464 13.3489 16.379 12.6772L17.4527 10.5085C17.7853 9.83683 18.3295 9.83683 18.662 10.5085L19.7358 12.6772C20.0684 13.3489 20.9488 13.9867 21.6926 14.0944L24.0934 14.4421C24.8369 14.55 25.005 15.0659 24.4669 15.5887Z" fill="white"/>
</svg>
