<svg width="38" height="33" viewBox="0 0 38 33" fill="none" xmlns="http://www.w3.org/2000/svg">
<path d="M32.5146 17.8161H29.5758C29.8753 18.6557 30.039 19.5617 30.039 20.5061V31.8767C30.039 32.2704 29.972 32.6484 29.8502 32.9998H34.7087C36.5236 32.9998 38 31.4883 38 29.6304V23.4318C38.0001 20.3353 35.5393 17.8161 32.5146 17.8161Z" fill="white"/>
<path d="M7.96109 20.5062C7.96109 19.5617 8.12474 18.6557 8.42429 17.8161H5.48552C2.4608 17.8161 0 20.3354 0 23.4319V29.6305C0 31.4884 1.47644 33 3.29131 33H8.14983C8.02804 32.6484 7.96109 32.2705 7.96109 31.8768V20.5062Z" fill="white"/>
<path d="M22.3593 14.8904H15.6408C12.6161 14.8904 10.1553 17.4096 10.1553 20.5062V31.8768C10.1553 32.497 10.6465 32.9999 11.2524 32.9999H26.7477C27.3536 32.9999 27.8448 32.4971 27.8448 31.8768V20.5062C27.8448 17.4096 25.384 14.8904 22.3593 14.8904Z" fill="white"/>
<path d="M19 0C15.3624 0 12.403 3.02967 12.403 6.75374C12.403 9.27973 13.7649 11.4858 15.776 12.6441C16.73 13.1935 17.8298 13.5074 19 13.5074C20.1703 13.5074 21.2701 13.1935 22.224 12.6441C24.2353 11.4858 25.5971 9.27966 25.5971 6.75374C25.5971 3.02975 22.6377 0 19 0Z" fill="white"/>
<path d="M7.4158 6.29497C4.69531 6.29497 2.4821 8.56073 2.4821 11.3458C2.4821 14.1309 4.69531 16.3967 7.4158 16.3967C8.10589 16.3967 8.76303 16.2503 9.35997 15.9873C10.3921 15.5324 11.2431 14.7271 11.7696 13.7185C12.1392 13.0106 12.3495 12.203 12.3495 11.3458C12.3495 8.5608 10.1363 6.29497 7.4158 6.29497Z" fill="white"/>
<path d="M30.5843 6.29497C27.8638 6.29497 25.6506 8.56073 25.6506 11.3458C25.6506 12.203 25.8608 13.0106 26.2304 13.7185C26.757 14.7272 27.608 15.5325 28.6401 15.9873C29.2371 16.2503 29.8942 16.3967 30.5843 16.3967C33.3048 16.3967 35.518 14.1309 35.518 11.3458C35.518 8.56073 33.3048 6.29497 30.5843 6.29497Z" fill="white"/>
</svg>
