<svg width="55" height="55" viewBox="0 0 55 55" fill="none" xmlns="http://www.w3.org/2000/svg">
<path d="M54.386 26.6347L46.761 23.9659C43.7181 22.9003 40.3731 23.1139 37.4906 24.5573C34.6076 26.0008 32.4321 28.5501 31.4611 31.6245L29.4658 37.9431L27.5013 39.4162V26.221C27.4995 24.4621 28.3796 22.8189 29.8436 21.8455L29.8337 21.8308C29.8864 21.8027 29.9363 21.7687 29.9824 21.7307C33.6647 18.0479 35.5884 12.9606 35.2649 7.76253L34.8347 0.859192C34.8075 0.424756 34.4789 0.0694767 34.048 0.00803902C33.6184 -0.0487965 33.2066 0.200406 33.0572 0.607689L30.0928 8.90545C28.9845 12.0054 28.4178 15.2724 28.4182 18.5647V20.6301C26.6854 21.9668 25.6696 24.0324 25.6682 26.2217V28.0379L24.7364 27.105C24.5795 20.2894 20.1604 14.3046 13.6908 12.1515L7.62599 10.1354C7.31238 10.0302 6.96702 10.1027 6.72152 10.3233C6.47625 10.5454 6.36857 10.8816 6.44082 11.2044L7.44929 15.7524C9.06403 23.1735 15.6496 28.4543 23.2443 28.4164H23.456L25.6682 30.6293V50.7666L23.8351 49.8496V47.9641C23.8351 43.3531 21.6183 39.0223 17.8775 36.3266C14.1361 33.6305 9.32748 32.8967 4.95308 34.3554L0.629977 35.7965C0.254016 35.9203 0 36.2714 0 36.6674C0 37.0632 0.254016 37.4143 0.629977 37.5384L1.61222 37.8658C6.31657 39.43 10.7073 41.8176 14.5774 44.9169L22.3451 51.1313C22.3982 51.1681 22.4546 51.1989 22.5142 51.2233L22.5087 51.2357L25.6682 52.8172V55H27.5013V41.7081L30.8015 39.2326L30.7916 39.22C30.8291 39.1983 30.865 39.1737 30.8993 39.1477C36.7046 33.362 44.2638 29.6647 52.394 28.6343L54.1976 28.4092C54.6198 28.3556 54.9498 28.019 54.9949 27.5965C55.0397 27.1734 54.7878 26.7751 54.386 26.6347Z" fill="white"/>
</svg>
